<svg width="212" height="212" viewBox="0 0 212 212" fill="none" xmlns="http://www.w3.org/2000/svg">
<path d="M50.88 99.2287V99.1736V44.0494L50.3712 43.672H50.3288L38.7536 35.1072C31.6728 29.8496 21.5816 30.104 15.3064 36.2944C11.1088 40.4496 8.47998 46.216 8.47998 52.6184V67.8909L50.88 99.2287ZM161.12 99.1736V99.2287L203.52 67.8909V52.6184C203.52 46.3008 200.976 40.5344 196.821 36.3792C190.63 30.2015 180.857 29.4765 173.823 34.6705L161.629 43.672L161.12 44.0494V99.1736ZM59.36 105.44L103.481 138.054C104.978 139.161 107.026 139.161 108.523 138.054L152.64 105.44V50.3161L106 84.8L59.36 50.3161V105.44ZM161.12 109.769V173.84C161.12 176.18 163.019 178.08 165.36 178.08H192.92C198.775 178.08 203.52 173.335 203.52 167.48V78.4273L161.12 109.769ZM50.88 109.769L8.47998 78.4273V167.48C8.47998 173.335 13.2245 178.08 19.08 178.08H46.64C48.9805 178.08 50.88 176.18 50.88 173.84V109.769Z" fill="black"/>
</svg>
