<svg width="220" height="220" viewBox="0 0 220 220" fill="none" xmlns="http://www.w3.org/2000/svg">
<g filter="url(#filter0_d_19_192)">
<path fill-rule="evenodd" clip-rule="evenodd" d="M109.99 1.52588e-05C51.4636 1.52588e-05 3.99963 48.6587 3.99963 108.686C3.99963 156.697 34.369 197.436 76.4905 211.814C81.7939 212.808 83.7266 209.452 83.7266 206.57C83.7266 203.988 83.6355 197.156 83.5834 188.089C54.099 194.654 47.8781 173.517 47.8781 173.517C43.0562 160.961 36.1065 157.618 36.1065 157.618C26.4823 150.879 36.8353 151.013 36.8353 151.013C47.4747 151.78 53.0709 162.215 53.0709 162.215C62.5259 178.821 77.8831 174.024 83.9218 171.242C84.8849 164.223 87.6244 159.433 90.6503 156.717C67.1136 153.968 42.3665 144.648 42.3665 103.002C42.3665 91.1322 46.4986 81.4379 53.2792 73.8386C52.186 71.0898 48.5484 60.0408 54.3203 45.0756C54.3203 45.0756 63.2157 42.1533 83.4663 56.2111C91.9192 53.8025 100.99 52.6016 110.003 52.5549C119.009 52.6016 128.074 53.8025 136.54 56.2111C156.777 42.1533 165.659 45.0756 165.659 45.0756C171.444 60.0408 167.807 71.0898 166.72 73.8386C173.514 81.4379 177.613 91.1322 177.613 103.002C177.613 144.755 152.827 153.942 129.219 156.631C133.019 159.987 136.409 166.618 136.409 176.76C136.409 191.285 136.279 203.007 136.279 206.57C136.279 209.479 138.192 212.862 143.567 211.801C185.656 197.396 216 156.691 216 108.686C216 48.6587 168.536 1.52588e-05 109.99 1.52588e-05Z" fill="#1B1817"/>
<path d="M83.1808 200.446C83.1518 197.319 83.1147 193.317 83.0871 188.708C68.5668 191.789 59.6497 188.159 54.3499 183.646C51.6742 181.367 49.9398 178.879 48.8737 176.96C48.3405 176 47.9736 175.181 47.7392 174.599C47.622 174.309 47.5378 174.077 47.4824 173.916C47.4547 173.835 47.4342 173.773 47.4204 173.729C47.4181 173.722 47.4159 173.715 47.414 173.709C47.4102 173.697 47.4072 173.687 47.4048 173.68C45.0193 167.474 42.1165 163.562 39.8257 161.208C38.6787 160.029 37.6834 159.239 36.9807 158.746C36.6293 158.5 36.351 158.328 36.1633 158.218C36.0694 158.164 35.9983 158.125 35.9519 158.101C35.9407 158.095 35.931 158.09 35.9227 158.085C35.9139 158.081 35.9068 158.077 35.9014 158.074L35.8906 158.069L35.8898 158.069L35.8893 158.068L35.889 158.068L35.8889 158.068L35.8531 158.051L35.8197 158.028C33.4082 156.339 32.1398 155.013 31.6974 153.932C31.4666 153.369 31.4481 152.84 31.6476 152.371C31.8413 151.916 32.2096 151.59 32.6097 151.357C33.3978 150.896 34.4803 150.694 35.3118 150.6C35.7376 150.552 36.1176 150.53 36.3913 150.521C36.5284 150.516 36.6394 150.514 36.7169 150.513C36.7556 150.513 36.786 150.513 36.8071 150.513L36.8317 150.513L36.8386 150.513L36.8407 150.513L36.8413 150.513C36.8416 150.513 36.8418 150.513 36.8353 151.013L36.8418 150.513L36.8565 150.513L36.8713 150.514C42.3531 150.909 46.5177 153.794 49.2948 156.547C50.6853 157.925 51.7364 159.278 52.4403 160.286C52.7925 160.791 53.0585 161.211 53.2373 161.506C53.3267 161.654 53.3943 161.77 53.44 161.85C53.4629 161.891 53.4803 161.922 53.4922 161.943L53.506 161.969L53.5081 161.972C58.1541 170.129 64.2104 172.988 69.8231 173.501C75.3199 174.005 80.4429 172.262 83.465 170.901C84.3893 164.521 86.7763 159.943 89.5456 157.087C78.0753 155.652 66.3262 152.568 57.3554 144.824C48.0895 136.827 41.8665 123.93 41.8665 103.002C41.8665 91.1249 45.9637 81.3889 52.7026 73.7353C51.4725 70.4997 48.204 59.5443 53.8538 44.8957L53.9391 44.6746L54.1643 44.6006L54.3203 45.0756C54.1643 44.6006 54.1648 44.6004 54.1653 44.6003L54.1666 44.5998L54.1698 44.5988L54.1786 44.596L54.2062 44.5878C54.2131 44.5857 54.2208 44.5835 54.2294 44.5811C54.249 44.5756 54.2728 44.5691 54.301 44.5619C54.3819 44.5412 54.4984 44.5142 54.6509 44.4859C54.956 44.4293 55.4052 44.3675 56.003 44.3392C57.1991 44.2828 58.9872 44.361 61.4048 44.8829C66.2083 45.92 73.4921 48.7076 83.557 55.6656C91.9923 53.2867 101.027 52.1014 110 52.0548L110.005 52.0549C118.972 52.1014 128.001 53.2867 136.449 55.6657C146.507 48.7077 153.784 45.92 158.583 44.883C160.998 44.361 162.784 44.2827 163.979 44.3392C164.576 44.3675 165.025 44.4293 165.33 44.4859C165.482 44.5142 165.598 44.5412 165.679 44.562C165.72 44.5723 165.751 44.5812 165.774 44.5878L165.801 44.5961L165.81 44.5989L165.813 44.5999L165.815 44.6003C165.815 44.6004 165.815 44.6005 165.805 44.6319C165.79 44.6782 165.753 44.7926 165.659 45.0756L165.816 44.6007L166.041 44.6746L166.126 44.8954C171.789 59.5443 168.52 70.4998 167.296 73.7345C174.049 81.3891 178.113 91.1256 178.113 103.002C178.113 123.983 171.881 136.874 162.595 144.845C153.608 152.559 141.837 155.597 130.336 157.002C133.928 160.657 136.909 167.201 136.909 176.76C136.909 184.024 136.877 190.587 136.844 195.779C136.833 197.533 136.822 199.13 136.813 200.545C136.793 203.319 136.779 205.392 136.779 206.57C136.779 207.928 137.227 209.352 138.249 210.309C139.25 211.245 140.885 211.813 143.438 211.317C185.308 196.971 215.5 156.465 215.5 108.686C215.5 48.923 168.248 0.500015 109.99 0.500015C51.7514 0.500015 4.49963 48.923 4.49963 108.686C4.49963 156.471 34.7166 197.01 76.6177 211.329C79.1322 211.792 80.7565 211.218 81.7553 210.281C82.7756 209.324 83.2266 207.911 83.2266 206.57C83.2266 205.374 83.207 203.266 83.1808 200.446Z" stroke="black"/>
</g>
<defs>
<filter id="filter0_d_19_192" x="-0.000488281" y="1.52588e-05" width="220" height="220" filterUnits="userSpaceOnUse" color-interpolation-filters="sRGB">
<feFlood flood-opacity="0" result="BackgroundImageFix"/>
<feColorMatrix in="SourceAlpha" type="matrix" values="0 0 0 0 0 0 0 0 0 0 0 0 0 0 0 0 0 0 127 0" result="hardAlpha"/>
<feOffset dy="4"/>
<feGaussianBlur stdDeviation="2"/>
<feComposite in2="hardAlpha" operator="out"/>
<feColorMatrix type="matrix" values="0 0 0 0 0 0 0 0 0 0 0 0 0 0 0 0 0 0 0.25 0"/>
<feBlend mode="normal" in2="BackgroundImageFix" result="effect1_dropShadow_19_192"/>
<feBlend mode="normal" in="SourceGraphic" in2="effect1_dropShadow_19_192" result="shape"/>
</filter>
</defs>
</svg>
