<svg width="1440" height="763" viewBox="0 0 1440 763" fill="none" xmlns="http://www.w3.org/2000/svg">
<g style="mix-blend-mode:darken" filter="url(#filter0_f_11_3)">
<path d="M598.097 624.813C552.787 624.813 539.193 609.972 523.536 581.528C522.558 579.562 522.325 577.515 522.852 575.502C523.378 573.489 524.653 571.55 526.604 569.797C528.655 567.596 532.272 565.908 536.67 565.102C555.597 562.611 575.012 562.429 593.795 562.248C619.605 562.007 644.038 561.78 668.013 556.209C675.961 554.125 683.626 551.754 690.955 549.113C712.864 541.7 737.67 533.306 760.039 537.232C775.094 539.874 783.411 543.739 784.787 548.721C787.97 560.27 751.636 573.632 727.604 582.479C723.331 583.989 719.632 585.408 716.764 586.54C707.332 590.501 698.377 594.767 689.951 599.313C669.389 609.881 646.046 621.959 618.601 623.997C611.812 624.524 604.96 624.797 598.097 624.813ZM538.792 569.495C536.728 570.046 535.073 570.944 534.089 572.047C531.344 574.533 530.542 577.483 531.852 580.275C549.288 612.085 561.218 623.726 617.54 619.529C642.203 617.687 663.424 606.711 684.072 596.097C692.762 591.407 702.005 587.01 711.746 582.932C714.613 581.754 718.485 580.38 722.815 578.78C742.402 571.579 778.822 558.172 776.413 549.385C775.524 546.23 769.158 543.603 757.458 541.549C738.989 538.304 716.019 546.079 695.744 552.933C688.038 555.714 679.958 558.197 671.569 560.361C645.988 566.4 619.576 566.596 594.139 566.838C575.729 566.944 556.773 567.185 538.792 569.495Z" fill="#A1A591" fill-opacity="0.19"/>
<path d="M1360.63 328.507C1348.26 328.471 1336.22 326.39 1326.22 322.559C1288.94 308.715 1273.34 275.319 1270.32 259.587C1266.17 237.65 1282.2 220.077 1297.68 203.107C1306.06 193.928 1314.69 184.446 1320.22 174.271C1324.87 165.725 1325.33 154.795 1325.96 143.23C1327.13 116.507 1328.48 86.2214 1384.06 76.4684C1396.39 74.2944 1401.27 75.5776 1406.11 77.4497C1406.71 77.6762 1407.32 77.9178 1407.98 78.1442C1408.26 78.2364 1408.53 78.3426 1408.78 78.4613L1414.17 81.36C1414.37 81.4547 1414.54 81.5611 1414.69 81.6771C1421.77 87.2179 1418.73 98.1938 1415.17 103.825C1400.21 127.453 1384.92 155.685 1384.92 185.881C1384.92 200.254 1397.34 211.38 1410.5 223.172C1431.69 242.179 1455.72 263.724 1426.33 302.434C1416.12 315.871 1399 324.522 1376.86 327.436C1371.56 328.143 1366.1 328.503 1360.63 328.507ZM1394.67 79.8503C1391.89 79.9365 1389.16 80.2419 1386.55 80.7561C1336.71 89.5127 1335.51 116.87 1334.33 143.336C1333.82 155.202 1333.33 166.405 1328.37 175.524C1322.63 186.092 1313.83 195.724 1305.43 205.055C1289.77 222.236 1274.97 238.45 1278.9 259.134C1282.23 276.587 1298.97 306.888 1331.15 318.845C1337.34 321.216 1344.46 322.825 1351.99 323.551C1359.52 324.278 1367.27 324.104 1374.65 323.042C1399.12 319.826 1411.93 309.137 1418.21 300.743C1446.06 264.101 1424.15 244.459 1402.96 225.466C1389.8 213.675 1376.2 201.492 1376.2 185.881C1376.2 155.036 1391.72 126.366 1406.89 102.391C1410.16 97.2427 1412.16 88.2143 1407.63 84.3795L1402.87 81.828C1402.21 81.6016 1401.58 81.36 1400.95 81.1185C1399.22 80.3063 1396.99 79.8552 1394.67 79.8503Z" fill="#A1A591" fill-opacity="0.19"/>
<path d="M585.02 422.988C583.226 422.991 581.434 422.926 579.658 422.792C566.237 421.78 556.716 417.025 551.439 408.645C546.162 400.266 555.511 392.234 564.573 384.489C570.309 379.628 575.614 375.023 576.962 370.735C588.892 332.991 547.252 308.382 453.161 297.376L449.261 296.923C435.324 295.308 420.928 293.647 408.51 289.873C407.619 289.598 406.799 289.263 406.073 288.876C404.431 288.043 403.298 286.971 402.819 285.798C402.339 284.624 402.535 283.401 403.382 282.287C404.228 281.172 405.686 280.215 407.57 279.539C409.455 278.862 411.679 278.497 413.959 278.489C435.066 278.202 453.219 277.387 469.249 276.677C522.274 274.337 560.558 272.646 641.544 291.594C695.17 304.14 713.237 326.454 698.268 361.828C693.672 372.847 685.21 383.318 673.318 392.702C661.704 401.504 618.487 422.988 585.02 422.988ZM516.739 279.757C501.684 279.757 486.714 280.422 469.995 281.161C453.85 281.886 435.582 282.671 414.189 282.988C413.588 282.968 412.99 283.049 412.48 283.218C411.971 283.387 411.576 283.636 411.35 283.93C411.125 284.224 411.081 284.548 411.225 284.856C411.369 285.164 411.694 285.44 412.153 285.645C412.352 285.749 412.574 285.84 412.812 285.917C424.082 289.344 437.819 290.93 451.097 292.47L455.025 292.922C554.393 304.548 598.413 330.968 585.45 371.43C583.816 376.593 577.765 381.772 571.915 386.799C563.483 394.001 555.54 400.81 559.583 407.181C563.828 413.884 570.796 417.508 580.891 418.278C609.396 420.437 654.219 399.209 666.235 390.075C677.443 381.154 685.452 371.227 689.865 360.786C703.946 327.436 687.972 307.341 638.045 295.67C583.73 282.988 549.976 279.757 516.739 279.757Z" fill="#A1A591" fill-opacity="0.19"/>
<path d="M458.495 21.3169C452.358 26.7672 445.992 32.4137 445.992 39.434C445.992 44.9447 450.379 49.8816 454.595 54.6675C458.122 58.1782 460.718 61.9272 462.309 65.8095C465.607 76.3778 453.706 85.4364 443.325 91.2791C411.607 108.868 346.079 122.063 303.092 119.527C281.44 118.243 267.188 114.424 259.531 107.871C244.561 95.0837 257.523 73.8263 270.83 54.9091C272.837 52.0707 274.787 48.9606 276.852 45.6693C284.05 34.2405 292.194 21.2716 305.529 14.0852C306.963 13.3303 308.684 12.4546 310.634 11.4733C314.735 9.37474 319.696 6.85344 324.6 4.04529H312.871C310.003 5.55505 307.135 6.97422 304.813 8.21223C302.834 9.22376 301.056 10.1296 299.593 10.8996C284.681 18.8409 276.192 32.3382 268.708 44.2502C266.672 47.5112 264.75 50.576 262.8 53.3087C248.777 73.2526 235.155 95.7178 252.361 110.242C261.395 117.957 278.171 122.592 302.318 124.026C306.231 124.253 310.166 124.364 314.104 124.358C358.784 124.358 419.207 111.314 449.748 94.3892C466.697 84.9985 474.038 74.8681 470.97 65.0848C469.257 60.7897 466.43 56.6392 462.567 52.7501C458.552 48.2208 454.738 43.9482 454.738 39.434C454.738 33.6517 460.216 28.8657 466.037 23.6269C472.318 18.0408 479.258 11.8356 478.741 4H470.138C470.568 10.5524 464.575 15.8063 458.495 21.3169Z" fill="#A1A591" fill-opacity="0.19"/>
<path d="M146.599 21.5736C156.808 25.499 170.229 26.3897 186.461 24.2308C200.169 22.404 215.482 14.1758 232.861 4.04529H221.189C207.281 12.0017 194.433 18.4937 184.367 19.8374C170.516 21.6793 159.848 21.0452 151.675 17.92C144.104 14.991 139.172 10.0843 135.816 4.04529H126.783C130.568 11.4431 136.591 17.7237 146.599 21.5736Z" fill="#A1A591" fill-opacity="0.19"/>
<path d="M544.872 37.3657C542.233 46.5752 538.104 58.5023 529.443 69.0706C514.437 86.966 494.945 103.722 471.486 118.893C460.015 126.306 444.156 132.782 428.728 139.063C424.512 140.769 420.383 142.445 416.454 144.121C402.517 150.068 386.513 154.529 369.337 157.256C275.304 172.217 232.087 132.163 190.304 93.423C158.328 63.8015 128.131 35.7502 76.9129 32.4438C51.1032 30.7529 25.4943 32.3382 0 35.3124V39.9624C25.3222 36.9429 50.7591 35.2822 75.8519 36.9429C122.797 39.9624 151.962 67.0475 182.819 95.6574C218.235 128.495 257.696 165.106 331.282 165.106C345.057 165.034 358.738 163.9 371.889 161.74C390.128 158.857 407.119 154.123 421.903 147.804C425.803 146.159 429.904 144.498 434.062 142.792C449.892 136.361 466.238 129.718 478.254 121.897C502.215 106.374 522.122 89.2316 537.444 70.9276C546.506 59.8158 550.751 47.5112 553.446 38.03C557.087 26.7921 557.319 15.3214 554.134 4.04529H545.531C548.571 13.3001 548.686 24.2157 544.872 37.3657Z" fill="#A1A591" fill-opacity="0.19"/>
<path d="M1433.87 481.129C1423.17 480.7 1412.42 480.629 1401.7 480.918C1343.88 482.714 1291.98 497.525 1241.76 511.777C1205.51 522.089 1168 532.763 1129.03 538.228C1032.99 551.725 956.02 535.888 906.494 492.422C890.75 478.623 879.824 467.737 882.377 453.032C886.019 431.896 900.616 413.779 916.073 394.68C923.758 385.169 931.702 375.325 938.183 365.074C947.102 350.973 948.45 337.46 949.883 323.148C950.342 318.619 950.801 313.787 951.575 309.047C952.895 300.577 957.999 292.002 963.046 283.713C967.132 277.31 970.465 270.78 973.026 264.162C980.912 241.364 959.232 200.903 929.236 182.499C891.381 159.233 836.55 149.193 766.29 152.651C694.883 156.169 630.015 172.534 597.696 181.985C549.661 196.041 464.632 216.71 435.123 197.294C433.32 196.138 432.004 194.793 431.263 193.348C430.521 191.904 430.371 190.393 430.821 188.915C433.316 178.498 458.036 166.269 472.232 160.622C483.301 156.259 495.174 151.911 506.645 147.714C562.738 127.211 620.724 105.999 632.051 67.2287C639.134 42.9518 634.202 23.7174 619.892 4.10568H610.6C625.341 23.6269 630.675 42.5743 623.534 66.5342C612.665 103.327 556.343 123.965 501.626 143.94C490.155 148.152 478.139 152.53 466.955 156.939C462.739 158.614 425.717 173.546 422.161 188.281C421.57 190.361 421.81 192.483 422.867 194.51C423.924 196.538 425.774 198.428 428.298 200.057C444.07 210.444 473.637 212.362 516.223 205.749C541.201 201.869 569.964 195.181 601.768 185.881C633.571 176.58 697.12 160.532 766.979 157.105C834.285 153.783 886.65 163.31 922.611 185.382C950.715 202.639 971.822 241.968 964.452 263.286C961.944 269.72 958.698 276.067 954.73 282.294C949.654 290.824 944.406 299.641 943.001 308.609C942.226 313.425 941.739 318.226 941.28 322.861C939.904 336.856 938.584 350.037 930.01 363.624C923.643 373.695 915.671 383.448 908.158 392.869C893.131 411.499 877.559 430.763 873.745 452.595C870.877 468.628 883.008 480.661 899.038 494.717C938.814 529.607 995.423 547.453 1064.99 547.453C1087.37 547.355 1109.62 545.716 1131.18 542.576C1171.16 536.975 1209.1 526.165 1245.89 515.733C1295.27 501.677 1346.26 487.138 1402.24 485.417C1412.75 485.131 1423.29 485.202 1433.79 485.628L1433.87 481.129Z" fill="#A1A591" fill-opacity="0.19"/>
<path d="M1433.87 406.124C1388.71 414.079 1344.96 424.091 1303.1 436.048C1288.25 440.446 1273.98 445.364 1260.37 450.768C1245.66 456.339 1230.46 462.106 1214.23 466.379C1162.78 479.966 1069.47 479.966 1026.28 459.766C967.549 432.273 984.669 398.47 1001.22 365.768C1007.53 353.328 1018.11 337.853 1029.35 321.457C1067.95 265.052 1116.01 194.849 1063.25 153.179C1004.49 106.784 874.949 109.306 773.316 127.136C765.229 128.555 755.192 130.94 744.639 133.477C711.803 141.282 666.923 152.002 642.146 142.218C634.718 139.289 630.675 136.179 629.757 132.828C627.979 126.155 638.561 118.787 648.77 111.691C652.785 108.913 656.57 106.271 659.696 103.629C663.883 100.111 668.299 96.5633 672.888 92.804C702.282 68.9045 735.634 41.8345 729.526 12.7868C728.883 9.83507 727.818 6.91299 726.343 4.04529H717.424C719.095 7.07803 720.285 10.1787 720.98 13.3152C726.715 40.7022 694.281 67.0475 665.661 90.3129C661.015 94.0873 656.628 97.6503 652.412 101.198C649.544 103.674 645.788 106.226 641.916 108.943C630.617 116.794 618.974 124.917 621.24 133.462C622.473 137.991 627.778 142.203 636.984 145.842C665.661 157.225 711.545 146.34 748.137 137.599C758.547 135.123 768.355 132.782 776.012 131.439C874.634 114.137 1000.01 111.419 1056.08 155.701C1106.43 195.468 1059.2 264.479 1021.23 319.917C1009.96 336.404 999.295 351.984 992.9 364.606C975.693 398.621 957.856 433.813 1020.57 463.148C1042.37 473.354 1076.84 479.438 1117.56 480.284C1120.72 480.284 1123.87 480.389 1127.02 480.389C1160.58 480.389 1194.01 476.751 1218.07 470.425C1234.94 465.986 1250.42 460.113 1265.39 454.436C1278.69 449.157 1292.64 444.345 1307.15 440.033C1347.75 428.454 1390.14 418.706 1433.87 410.895V406.124Z" fill="#A1A591" fill-opacity="0.19"/>
<path d="M1433.87 4.04529H1433.18C1433.18 10.0843 1426.7 15.9724 1414.11 21.7699C1356.44 48.2812 1278.47 43.8123 1202.99 39.4793C1166.14 37.3657 1128.06 35.1765 1093.67 36.8221C1063.48 38.3319 1037.64 45.6391 1012.63 52.7501C987.623 59.8611 964.595 66.4436 937.093 68.044C901.161 70.1576 862.532 68.5422 833.855 63.7562C794.71 57.219 772.829 45.3221 768.814 28.3826C766.864 20.2148 769.847 12.2886 773.575 4.04529H764.742C761.157 12.1225 758.232 20.4111 760.268 28.9563C768.556 64.1488 844.666 73.4942 905.147 73.4942C916.135 73.4941 927.116 73.1816 938.04 72.5581C967.205 70.8521 992.384 63.6808 1016.73 56.7359C1042.08 49.5192 1066.03 42.6951 1094.45 41.3363C1127.97 39.736 1163.96 41.7893 1202.04 43.9784C1279.47 48.4171 1359.37 53.037 1419.79 25.1668C1425.18 22.7519 1429.91 19.9636 1433.87 16.8782L1433.87 4.04529Z" fill="#A1A591" fill-opacity="0.19"/>
<path d="M1066.4 4.04529C1061.35 4.92095 1056.16 5.82681 1050.83 6.79305C1006.35 14.7042 955.934 23.6872 916.044 11.111C910.114 9.33913 904.956 6.93207 900.902 4.04529H890.636C895.566 8.66894 902.871 12.4677 911.714 15.0061C927.059 19.7298 944.586 22.128 962.358 21.9359C992.642 21.9359 1024.33 16.2894 1053.58 11.0808C1062.79 9.43513 1071.5 7.88008 1079.88 6.55149C1087.03 5.45901 1094.31 4.62171 1101.67 4.04529H1066.4Z" fill="#A1A591" fill-opacity="0.19"/>
<path d="M1433.87 112.748C1433.53 113.352 1433.13 113.971 1432.78 114.59C1421.94 134.579 1423.58 156.863 1433.87 178.951V112.748Z" fill="#A1A591" fill-opacity="0.19"/>
<path d="M1433.87 384.806L1429.46 385.425C1409.38 388.324 1391.32 393.865 1373.97 399.209C1365.36 401.821 1356.76 404.539 1347.81 406.864C1296.54 420.361 1176.64 436.591 1131.76 412.903C1029.23 358.99 1092.96 275.153 1139.47 213.902C1142.83 209.372 1147.1 205.039 1151.6 200.314C1160.49 191.089 1169.67 181.548 1172.08 171.432C1176.44 153.074 1147.96 142.747 1122.84 133.552C1093.79 122.984 1068.69 113.926 1086.76 94.8271C1091.55 89.7694 1099.12 85.0136 1106.46 80.3938C1108.76 78.884 1111.05 77.5101 1113.23 76.0759C1123.96 69.0102 1143.74 70.5954 1161.18 71.9844C1164.22 72.226 1167.14 72.4675 1169.95 72.6487C1208.12 75.17 1297.54 84.138 1303.68 113.216C1308.21 134.609 1289.11 150.296 1268.92 166.888C1260.67 173.434 1253.07 180.202 1246.15 187.164C1239.73 194.003 1233.45 200.314 1227.4 206.353C1187.05 246.528 1160.4 273.069 1216.67 324.899C1230.06 337.249 1258.88 358.959 1301.35 365.663C1336.34 371.188 1385.47 367.957 1433.9 358.114V353.132C1386.21 363.111 1337.29 366.629 1303.82 361.345C1264.22 355.094 1236.89 334.426 1224.13 322.665C1170.21 272.994 1194.59 248.687 1234.99 208.482C1241.1 202.443 1247.41 196.102 1253.89 189.293C1260.64 182.462 1268.07 175.825 1276.15 169.409C1296.22 152.802 1317.04 135.772 1312.19 112.793C1305.4 80.5146 1211.19 70.8823 1171.02 68.2402C1168.15 68.0591 1165.28 67.8175 1162.41 67.591C1143.66 66.0813 1120.28 64.2092 1106.43 73.3281C1104.31 74.7322 1102.07 76.1363 1099.81 77.5705C1091.78 82.2339 1084.8 87.3711 1079.02 92.8795C1057.6 115.42 1088.25 126.577 1117.88 137.357C1143.23 146.597 1167.2 155.308 1163.47 170.949C1161.26 180.279 1152.43 189.459 1143.86 198.336C1139.47 202.865 1134.94 207.621 1131.41 212.241C1084.01 274.639 1019.08 360.077 1125.68 416.164C1144.14 425.902 1173.34 429.556 1205.46 429.556C1257.71 429.556 1317.67 419.863 1351.71 410.925C1360.83 408.525 1369.75 405.777 1378.35 403.12C1395.22 397.911 1412.77 392.551 1431.78 389.804L1433.93 389.487L1433.87 384.806Z" fill="#A1A591" fill-opacity="0.19"/>
<path d="M1433.87 709.269C1422.8 710.552 1411.76 711.79 1400.89 712.998C1349.13 718.78 1300.26 724.245 1267.54 732.866C1243 739.317 1221 748.159 1202.7 758.925H1214.58C1230.99 749.936 1250.2 742.491 1271.39 736.912C1303.13 728.563 1351.48 723.158 1402.67 717.436C1412.97 716.289 1423.41 715.111 1433.87 713.904V709.269Z" fill="#A1A591" fill-opacity="0.19"/>
<path d="M883.753 742.77C873.86 716.742 824.334 709.269 780.515 702.686C747.708 697.734 716.707 693.069 708.62 681.459C701.91 671.872 710.685 657.695 735.462 638.129C746.793 628.934 762.651 621.529 781.346 616.705C805.894 610.243 827.632 600.672 847.763 587.431C854.072 583.294 858.517 578.04 862.819 572.968C873.057 560.889 882.893 549.355 916.704 549.355C921.786 549.371 926.857 549.593 931.874 550.019C957.684 552.103 971.105 558.564 985.358 565.404C1007.01 575.806 1029.41 586.54 1094.53 580.848C1160.95 575.021 1232.18 558.293 1295.27 543.542L1306.4 540.93C1319.67 537.656 1332.55 533.976 1345 529.909C1365.62 523.463 1386.96 516.774 1410.96 514.268C1418.67 513.453 1426.39 512.849 1433.9 512.441V507.912C1425.7 508.35 1417.44 508.984 1409.15 509.86C1383.8 512.517 1361.84 519.401 1340.59 526.044C1328.43 530.023 1315.83 533.622 1302.87 536.824L1291.72 539.436C1229.29 554.08 1158.48 570.688 1093.13 576.41C1032.19 581.769 1012.26 572.213 991.179 562.082C976.611 555.092 961.555 547.875 933.222 545.565C880.284 541.263 866.834 557.145 854.99 571.156C851.423 575.933 846.751 580.462 841.081 584.638C821.724 597.35 800.933 606.53 777.532 612.689C757.558 617.885 740.595 625.804 728.408 635.623C701.623 656.759 692.79 671.857 700.619 683.029C710.226 696.783 743.263 701.765 778.22 707.034C821.581 713.571 866.432 720.335 875.294 743.661C877.198 748.699 878.472 753.798 879.108 758.925H887.711C887.064 753.5 885.743 748.104 883.753 742.77Z" fill="#A1A591" fill-opacity="0.19"/>
<path d="M1433.87 668.626C1424.9 670.634 1416.04 672.657 1407.32 674.665C1351.63 687.392 1299.03 699.41 1237.06 705.947C1203.94 709.435 1165.37 712.892 1158.94 712.56C1137.15 704.634 1107.32 677.322 1101.59 665.078C1089.23 639.065 1136.75 620.797 1174.94 606.122C1181.4 603.631 1187.5 601.291 1193.13 598.981C1214.32 590.315 1236.66 588.835 1260.32 587.265C1275.22 586.531 1289.95 585.014 1304.28 582.736C1322.14 579.322 1339.54 575.287 1356.39 570.658C1377.18 565.253 1398.66 559.667 1419.88 556.874C1424.44 556.27 1429.14 555.817 1433.9 555.439V550.91C1428.48 551.306 1423.1 551.851 1417.78 552.541C1395.67 555.454 1373.76 561.146 1352.57 566.657C1336.08 571.188 1319.04 575.137 1301.55 578.478C1287.76 580.671 1273.58 582.133 1259.23 582.841C1235.45 584.427 1210.91 586.057 1187.85 595.493C1182.34 597.743 1176.38 600.022 1169.87 602.544C1129.72 618.019 1079.48 637.268 1093.24 666.256C1099.55 679.572 1130.26 708 1154.73 716.591C1155.24 716.772 1156.07 717.059 1159.95 717.059C1167.55 717.059 1186.96 715.911 1238.75 710.461C1301.64 703.833 1354.64 691.725 1410.82 678.892L1433.96 673.638L1433.87 668.626Z" fill="#A1A591" fill-opacity="0.19"/>
<path d="M1433.87 636.317C1423.46 638.416 1413.17 640.59 1402.96 642.734C1360.32 651.792 1316.18 661.077 1269.38 663.312C1237.4 664.821 1218.16 662.859 1216.56 657.876C1213.14 647.308 1273.71 623.469 1309.44 618.759C1343.62 614.229 1379.9 609.126 1413.63 602.03C1418.7 600.958 1425.67 599.63 1433.87 598.165V593.44C1423.26 595.297 1414.95 596.867 1410.44 597.818C1377.18 604.823 1341.24 609.896 1307.35 614.426C1273.45 618.955 1203.28 643.79 1208.1 658.692C1210.7 666.829 1231.75 668.475 1249.53 668.475C1257.91 668.475 1265.54 668.113 1270.15 667.886C1318.22 665.591 1362.92 656.14 1406.17 647.006C1415.32 645.074 1424.55 643.126 1433.87 641.224V636.317Z" fill="#A1A591" fill-opacity="0.19"/>
<path d="M1336.86 758.925H1336.37C1331.83 758.358 1327.09 758.384 1322.58 759L1336.86 758.925Z" fill="#A1A591" fill-opacity="0.19"/>
<path d="M1433.87 745.85C1424.4 748.798 1416.96 753.263 1412.65 758.592C1412.57 758.701 1412.5 758.812 1412.45 758.925H1421.8C1424.69 755.961 1428.82 753.38 1433.87 751.376V745.85Z" fill="#A1A591" fill-opacity="0.19"/>
<path d="M1075.98 699.848C1053.58 691.016 1039.7 682.41 1028.06 670.136C1017.91 659.447 1012.52 648.048 1007.3 637.027C1000.64 622.925 993.731 608.341 976.84 594.995C969.786 589.424 958.716 586.208 943.919 585.423C917.105 584.034 887.367 591.115 882.406 593.727C873.171 598.588 864.568 602.559 856.969 606.061C834.485 616.449 818.254 623.952 809.278 642.854C802.223 657.68 836.579 668.294 872.942 679.526C904.086 689.159 936.29 699.153 940.936 711.352C943.488 717.633 940.621 731.749 937.753 748.024C937.093 751.542 936.405 755.195 935.746 758.925H944.349C944.98 755.346 945.639 751.844 946.27 748.462C949.511 731.115 952.006 717.406 949.453 710.461C944.033 696.224 910.137 685.762 877.358 675.616C843.834 665.274 812.203 655.491 817.681 643.911C825.997 626.383 840.622 619.634 862.704 609.428C870.39 605.88 879.108 601.879 888.514 596.882C891.726 595.191 915.04 589.741 936.921 589.741C939.015 589.741 941.08 589.741 943.116 589.892C955.189 590.526 964.165 593.078 969.728 597.441C985.788 610.123 992.183 623.68 998.979 638.038C1004.31 649.301 1009.79 660.941 1020.37 672.083C1032.68 685.037 1047.3 694.111 1070.82 703.396C1095.62 713.179 1091.23 738.029 1084.41 758.849H1093.01C1100.15 737.093 1104.23 711.005 1075.98 699.848Z" fill="#A1A591" fill-opacity="0.19"/>
<path d="M843.719 501.994C806.639 488.98 750.087 506.523 695.4 523.372C664.6 532.899 635.492 541.882 613.726 543.965C556.027 549.491 503.633 547.951 442.78 543.965C430.162 543.135 415.766 540.236 400.567 537.171C373.753 531.766 346.079 526.195 321.732 530.468C294.431 535.254 286.947 563.683 280.953 586.51C278.085 596.897 275.619 606.726 271.805 610.847C270.199 611.814 260.993 614.38 252.132 616.886C210.177 628.647 122.883 653.121 92.2266 696.587C81.8167 711.337 72.5252 729.665 93.2303 740.551C119.04 754.139 172.122 740.853 203.839 732.926C209.001 731.628 213.475 730.511 217.117 729.696C284.681 714.447 378.772 699.833 443.181 716.787C475.472 725.287 508.05 742.061 532.311 758.955H543.18C517.857 740.566 482.699 722.132 447.024 712.741C425.287 707.019 400.509 704.694 374.585 704.694C320.098 704.694 260.621 714.945 213.733 725.529C209.948 726.374 205.417 727.522 200.14 728.835C170.459 736.248 120.789 748.658 99.3099 737.35C82.1035 728.292 90.7067 711.684 100.285 698.172C129.823 656.261 215.081 632.361 256.176 620.857C272.464 616.328 277.712 614.818 279.433 612.946C283.907 608.22 286.488 598.437 289.47 587.114C294.862 566.657 302.232 538.636 324.457 534.741C345.85 530.981 372.09 536.25 397.469 541.383C413.213 544.554 428.04 547.543 441.69 548.449C503.375 552.495 556.4 554.05 615.275 548.449C638.532 546.23 668.271 537.035 699.759 527.312C749.715 511.868 806.353 494.354 838.93 505.783C865.801 515.219 845.87 535.465 832.678 548.857C831.302 550.246 830.012 551.559 828.864 552.767C811.83 570.703 761.616 603.555 724.737 612.176L719.603 613.369C684.101 621.612 624.71 635.411 618.859 657.001C611.059 685.686 660.614 706.143 713.065 727.748C737.326 737.728 761.817 747.858 780.629 758.955H792.1C772.226 746.348 744.954 735.116 718.399 724.23C667.955 703.471 620.322 683.859 627.405 657.71C632.596 638.597 691.471 624.918 723.102 617.581L728.264 616.373C767.409 607.209 818.569 573.813 836.579 554.85L840.335 551.001C854.043 536.99 876.985 513.679 843.719 501.994Z" fill="#A1A591" fill-opacity="0.19"/>
<path d="M653.244 744.386C641.228 735.523 630.56 725.71 620.236 716.213C613.812 710.31 607.159 704.135 600.162 698.398C587.831 688.011 582.325 676.054 577.019 664.474C571.112 651.701 565.032 638.491 549.776 627.243C528.64 611.648 500.508 604.597 473.322 597.652C456.832 593.47 439.74 589.137 423.968 582.917C418.863 580.894 413.242 576.968 407.306 572.817C392.394 562.369 373.811 549.37 347.686 556.209C334.15 559.772 325.919 564.151 322.536 569.601C316.8 578.659 326.522 588.503 334.982 597.154C341.577 603.872 347.8 610.244 344.33 613.912C338.222 620.344 319.84 623.378 303.608 625.99C296.091 627.1 288.747 628.514 281.641 630.218C267.131 634.037 140.176 668.399 153.138 697.825C153.555 699.108 154.603 700.311 156.178 701.315C157.753 702.319 159.799 703.088 162.114 703.547C179.664 706.959 216.228 693.627 255.344 678.469C262.25 675.627 269.439 672.981 276.881 670.543C330.393 656.472 408.511 648.063 453.563 662.889C537.616 690.548 557.547 710.144 587.716 739.796C593.738 745.714 600.162 752.025 607.532 758.834H617.454C609.081 751.195 601.94 744.189 595.287 737.697C565.577 708.483 544.126 687.377 458.123 659.069C439.167 652.849 416.426 650.448 392.967 650.448C348.317 650.448 301.199 659.129 273.038 666.527C265.082 669.056 257.421 671.834 250.096 674.846C225.462 684.403 179.607 702.173 164.953 699.319C163.981 699.116 163.133 698.776 162.501 698.337C161.869 697.898 161.477 697.376 161.368 696.828C152.048 675.692 238.396 646.659 285.341 634.294C292.051 632.712 298.971 631.39 306.046 630.338C323.883 627.394 344.13 624.058 351.93 615.905C357.379 610.183 350.181 602.831 342.552 595.04C334.924 587.25 326.12 578.282 330.651 570.975C333.261 566.747 340.086 563.23 351.442 560.24C369.739 555.409 383.246 563.516 400.366 575.474C406.675 579.897 412.64 584.079 418.72 586.48C435.152 592.972 452.616 597.395 469.507 601.668C496.923 608.613 522.819 615.165 542.692 629.81C557.031 640.378 562.595 652.562 568.502 665.486C573.979 677.413 579.658 689.732 592.735 700.738C599.531 706.46 606.127 712.53 612.493 718.403C622.932 727.99 633.715 737.909 645.989 746.952C652.006 751.156 658.631 755.108 665.805 758.774L665.977 758.864H677.964C675.985 757.762 673.949 756.675 671.97 755.603C665.205 752.115 658.946 748.365 653.244 744.386Z" fill="#A1A591" fill-opacity="0.19"/>
<path d="M232.918 754.063C220.994 754.765 209.336 756.404 198.333 758.925H228.215C230.022 758.774 231.829 758.638 233.607 758.577C250.361 757.927 267.191 758.043 283.907 758.925H334.723C301.488 754.486 267.128 752.846 232.918 754.063Z" fill="#A1A591" fill-opacity="0.19"/>
<path d="M203.294 516.155C194.232 513.589 185.687 511.158 178.058 508.742C162.027 503.476 146.696 497.64 132.174 491.275C96.6717 476.403 63.0904 462.348 0 464.522V469.051C60.2227 466.907 91.0796 479.846 126.783 494.822C141.615 501.308 157.26 507.26 173.613 512.638C181.442 515.099 190.074 517.544 199.222 520.186C220.616 526.225 242.755 532.536 256.061 539.542C258.613 540.885 258.097 546.335 257.839 548.962C257.839 549.944 257.667 550.835 257.667 551.544C257.667 570.401 248.175 586.948 201.861 606.469C193.257 610.093 182.79 612.176 171.721 614.365C159.705 616.766 147.259 619.242 137.107 623.907C61.083 658.888 -19.7588 710.31 18.8124 758.925H28.2186C-11.7864 712.273 67.9943 661.726 142.928 627.274C151.876 623.137 163.003 620.918 174.904 618.562C186.117 616.328 197.846 614.033 207.367 609.957C242.812 595.025 266.414 579.384 266.414 551.499C266.414 550.85 266.414 549.989 266.586 549.144C267.016 544.614 267.532 539.058 262.284 536.296C247.945 528.822 225.261 522.391 203.294 516.155Z" fill="#A1A591" fill-opacity="0.19"/>
<path d="M0 637.283V642.371C1.91252 642.974 3.68359 643.694 5.27665 644.515C7.39878 645.647 8.1444 648.199 6.93994 651.686C5.49031 655.695 3.1614 659.601 0 663.327V673.729C7.39878 666.467 13.5358 658.556 15.4285 652.411C17.0057 647.293 15.6292 643.564 11.3563 641.314C8.06188 639.622 4.21491 638.257 0 637.283Z" fill="#A1A591" fill-opacity="0.19"/>
<path d="M94.9511 535.601C89.2156 530.498 83.308 525.214 71.7223 521.56C54.7453 516.201 29.5378 513.166 0.0287055 512.834V517.363C26.0105 517.695 50.7304 520.186 67.3347 525.425C77.0277 528.445 82.1323 532.974 87.5523 537.896C90.5694 540.739 93.9717 543.463 97.7328 546.049C119.298 560.24 126.984 571.714 120.675 580.169C108.573 596.022 49.6694 600.672 0.229448 604.129V608.658C52.2217 605.02 114.71 600.189 128.733 581.815C136.533 571.594 128.733 558.957 104.673 543.165C101.093 540.769 97.8439 538.241 94.9511 535.601Z" fill="#A1A591" fill-opacity="0.19"/>
<path d="M742.746 220.756C736.781 219.593 731.275 218.28 725.884 217.012C712.864 213.917 700.562 210.973 683.957 210.218C641.371 208.18 589.322 212.437 534.347 216.936C438.908 224.757 340.201 232.819 268.908 211.38C216.773 195.694 191.193 168.156 166.444 141.539C142.355 115.647 119.642 91.1885 74.6761 76.9666C53.7702 70.3539 27.473 67.9081 0.11471 68.3006V72.8299C23.7736 72.5128 49.4973 74.3396 70.4032 80.8618C113.247 94.4496 135.444 118.274 158.93 143.547C184.253 170.723 210.55 198.94 264.865 215.321C338.795 237.56 443.497 228.909 535.896 221.36C590.383 216.831 642.002 212.679 683.412 214.672C698.583 215.396 710.255 218.159 722.586 221.073C728.063 222.371 733.741 223.715 739.936 224.938C799.413 236.684 832.593 247.992 850.917 262.773C871.221 279.153 874.777 300.924 862.388 333.384C855.907 350.399 843.117 363.821 829.581 378.028C820.298 387.328 812.054 396.906 804.89 406.713C800.437 413.584 796.675 420.574 793.62 427.653C786.795 442.238 779.74 457.305 761.214 468.417C707.215 500.922 626.66 519.432 528.267 521.968C444.472 524.112 350.467 514.193 270.4 494.792C240.891 487.696 212.787 478.109 185.687 468.779C149.123 456.248 111.527 443.294 68.8259 435.836C48.7517 432.303 25.4656 431.186 0 432.454V436.984C24.6626 435.715 47.0024 436.757 66.1876 440.124C107.741 447.416 144.993 460.204 180.897 472.569C208.342 481.959 236.589 491.697 266.7 499.005C341.633 517.05 422.956 526.567 505.354 526.935C513.193 526.935 520.945 526.834 528.612 526.633C629.384 524.051 712.147 504.998 767.61 471.542C787.512 459.585 794.824 443.959 801.879 428.861C804.858 421.939 808.534 415.105 812.891 408.389C819.936 398.727 828.047 389.29 837.181 380.126C850.373 366.267 864.052 351.954 870.734 334.335C883.552 300.622 879.595 277.81 857.972 260.357C838.586 244.701 804.173 232.864 742.746 220.756Z" fill="#A1A591" fill-opacity="0.19"/>
<path d="M612.866 251.646C575.786 246.769 538.591 249.864 502.601 252.853C491.847 253.744 480.749 254.665 469.909 255.36C460.818 255.933 451.67 256.537 442.493 257.141C368.649 262.018 292.309 267.06 219.956 258.409C161.683 251.48 92.4561 225.436 77.4291 193.928C73.4716 185.594 73.9878 175.81 74.5614 165.242C75.7372 143.019 77.085 117.821 27.6451 108.053C18.7691 106.395 9.41802 105.552 0 105.561V110.091C8.40609 110.084 16.7506 110.845 24.6626 112.34C68.3384 120.976 67.1913 142.43 65.9868 165.182C65.442 175.463 64.8971 186.077 69.1413 195.03C78.5476 214.823 105.762 229.754 126.955 238.813C153.941 250.377 187.178 259.119 218.063 262.818C291.879 271.65 368.993 266.562 443.554 261.64C452.731 261.021 461.879 260.432 470.913 259.859C481.925 259.164 493.109 258.228 503.949 257.322C539.079 254.409 575.413 251.389 610.772 256.039C647.279 260.84 684.961 273.341 711.574 289.48C740.796 307.175 754.074 327.224 748.854 346.021C740.853 375.567 709.193 401.399 654.735 422.777C557.232 461.019 413.844 473.807 322.363 466.681C281.039 463.495 242.468 453.229 205.13 443.385C191.107 439.656 176.452 435.836 162.114 432.379C139.602 427.049 119.528 417.281 98.249 406.985C68.8259 392.536 38.3131 377.801 0 375.144V379.764C35.388 382.542 64.3235 396.582 92.5135 410.17C113.333 420.286 134.899 430.748 158.672 436.38C173.011 439.746 187.35 443.581 201.258 447.295C239.199 457.38 278.401 467.813 321.216 471.149C414.447 478.411 560.73 465.382 660.012 426.4C715.56 404.584 749.256 377.001 757.515 346.64C762.935 326.56 748.912 305.197 718.083 286.491C690.352 269.763 650.978 256.718 612.866 251.646Z" fill="#A1A591" fill-opacity="0.19"/>
<path d="M402.087 303.672C383.876 299.837 364.806 296.123 346.424 292.545C309.717 285.374 271.576 277.961 238.023 269.159C227.355 266.351 213.36 266.638 199.825 266.924C192.181 267.235 184.499 267.159 176.883 266.698C157.152 264.962 132.977 257.896 114.108 251.948C80.8418 241.379 40.4639 216.046 33.2945 193.354C31.7173 188.417 30.8856 183.148 29.9679 177.577C27.3583 161.06 24.3758 142.596 0 132.103V138.414C16.6042 148.061 19.0705 163.204 21.4507 177.985C22.3684 183.646 23.2574 188.991 24.8634 194.109C32.4629 218.084 74.8195 244.822 109.749 255.843C129.249 262.003 154.342 269.325 175.535 271.182C183.747 271.699 192.036 271.795 200.283 271.469C212.729 271.212 225.606 270.94 234.295 273.22C268.134 282.128 306.419 289.586 343.441 296.803C361.795 300.381 380.722 304.08 398.903 307.899C434.234 315.342 494.916 341.673 484.936 365.466C478.053 381.802 451.498 393.17 430.449 399.813C404.71 407.728 376.42 413.077 346.997 415.59C269.884 421.841 148.262 387.615 59.477 362.643C41.2955 357.525 24.1464 352.709 9.60695 348.874C6.3664 348.014 3.15452 347.183 0 346.368V351.426L5.73549 352.935C20.0742 356.74 37.2807 361.556 55.3762 366.644C137.795 389.834 248.117 420.875 327.525 420.875C334.465 420.889 341.397 420.622 348.259 420.074C399.19 415.953 479.803 398.273 493.224 366.448C504.494 339.8 440.887 311.84 402.087 303.672Z" fill="#A1A591" fill-opacity="0.19"/>
<path d="M212.385 290.899L206.65 290.099L188.812 287.593C138.053 280.497 68.5391 270.789 33.9541 255.224C21.2213 249.366 9.00472 239.266 0 228.818V238.949C8.23043 246.784 18.0668 253.895 28.6775 258.575C64.6677 274.805 135.272 284.679 186.834 291.881C193.114 292.756 199.079 293.587 204.614 294.387L210.349 295.187C240.69 299.445 266.901 303.128 260.162 322.635C257.294 330.531 248.203 337.445 233.463 342.639C211.238 350.474 177.341 353.871 151.015 350.897C109.347 346.292 68.8259 328.809 29.7959 311.885C19.7588 307.552 9.72166 303.264 0 299.218V304.985C8.02969 308.352 16.1454 311.855 24.3472 315.388C64.2375 332.644 105.504 350.49 149.037 355.396C156.372 356.211 163.851 356.611 171.348 356.589C194.951 356.636 218.087 353.126 238.023 346.474C254.742 340.586 265.238 332.644 268.392 323.51C276.623 299.958 242.497 295.112 212.385 290.899Z" fill="#A1A591" fill-opacity="0.19"/>
</g>
<defs>
<filter id="filter0_f_11_3" x="-4" y="0" width="1448" height="763" filterUnits="userSpaceOnUse" color-interpolation-filters="sRGB">
<feFlood flood-opacity="0" result="BackgroundImageFix"/>
<feBlend mode="normal" in="SourceGraphic" in2="BackgroundImageFix" result="shape"/>
<feGaussianBlur stdDeviation="2" result="effect1_foregroundBlur_11_3"/>
</filter>
</defs>
</svg>
