<svg width="212" height="212" viewBox="0 0 212 212" fill="none" xmlns="http://www.w3.org/2000/svg">
<path d="M195.621 27.7805C192.441 25.0838 187.446 24.698 182.282 26.7714H182.274C176.842 28.9507 28.5269 92.5677 22.4892 95.1668C21.391 95.5484 11.8001 99.127 12.7881 107.098C13.67 114.285 21.3783 117.261 22.3196 117.605L60.0259 130.516C62.5275 138.843 71.7495 169.566 73.7889 176.13C75.0609 180.221 77.1343 185.598 80.768 186.704C83.9565 187.934 87.128 186.81 89.1801 185.199L112.233 163.817L149.448 192.839L150.334 193.369C152.861 194.489 155.282 195.048 157.593 195.048C159.378 195.048 161.091 194.714 162.727 194.044C168.303 191.754 170.533 186.441 170.766 185.839L198.564 41.3527C200.26 33.6359 197.902 29.7097 195.621 27.7805ZM93.2802 135.68L80.5602 169.6L67.8402 127.2L165.36 55.12L93.2802 135.68Z" fill="black"/>
</svg>
